<svg width="25" height="24" viewBox="0 0 25 24" fill="none" xmlns="http://www.w3.org/2000/svg">
<path opacity="0.5" d="M5.50001 6.25C5.34664 6.24989 5.19693 6.29679 5.07105 6.38439C4.94517 6.47199 4.84917 6.59608 4.79598 6.73993C4.7428 6.88378 4.735 7.04047 4.77363 7.18889C4.81225 7.33731 4.89545 7.47033 5.01201 7.57L12.012 13.57C12.292 13.81 12.707 13.81 12.988 13.57L19.988 7.57C20.1046 7.47033 20.1878 7.33731 20.2264 7.18889C20.265 7.04047 20.2572 6.88378 20.204 6.73993C20.1509 6.59608 20.0549 6.47199 19.929 6.38439C19.8031 6.29679 19.6534 6.24989 19.5 6.25H5.50001Z" fill="url(#paint0_linear_691_2015)"/>
<path fill-rule="evenodd" clip-rule="evenodd" d="M4.93 10.5121C4.99412 10.4373 5.07237 10.3758 5.16026 10.3313C5.24814 10.2867 5.34395 10.2599 5.44221 10.2524C5.54047 10.2448 5.63924 10.2568 5.73289 10.2874C5.82654 10.3181 5.91323 10.3669 5.988 10.4311L12.5 16.0121L19.012 10.4311C19.0867 10.3662 19.1734 10.3168 19.2673 10.2856C19.3612 10.2544 19.4603 10.2421 19.559 10.2493C19.6576 10.2566 19.7538 10.2833 19.8421 10.3279C19.9304 10.3726 20.009 10.4342 20.0734 10.5093C20.1377 10.5844 20.1866 10.6715 20.2172 10.7656C20.2477 10.8597 20.2594 10.9589 20.2514 11.0575C20.2435 11.1561 20.2161 11.2521 20.1709 11.3401C20.1257 11.4281 20.0635 11.5063 19.988 11.5701L12.988 17.5701C12.8521 17.6866 12.679 17.7506 12.5 17.7506C12.321 17.7506 12.1479 17.6866 12.012 17.5701L5.012 11.5701C4.93717 11.506 4.87572 11.4277 4.83115 11.3399C4.78658 11.252 4.75977 11.1562 4.75225 11.0579C4.74473 10.9596 4.75664 10.8609 4.78731 10.7672C4.81798 10.6736 4.86681 10.5869 4.931 10.5121H4.93Z" fill="url(#paint1_linear_691_2015)"/>
<defs>
<linearGradient id="paint0_linear_691_2015" x1="4.74945" y1="6.25" x2="10.6303" y2="18.4046" gradientUnits="userSpaceOnUse">
<stop stop-color="#FFAC82"/>
<stop offset="1" stop-color="#FF5630"/>
</linearGradient>
<linearGradient id="paint1_linear_691_2015" x1="4.75006" y1="10.2473" x2="10.6344" y2="22.406" gradientUnits="userSpaceOnUse">
<stop stop-color="#FFAC82"/>
<stop offset="1" stop-color="#FF5630"/>
</linearGradient>
</defs>
</svg>
