<svg width="156" height="37" viewBox="0 0 156 37" fill="none" xmlns="http://www.w3.org/2000/svg">
<path d="M15.2421 23.8987C15.3079 23.8434 15.3427 23.8105 15.3806 23.7821C16.2613 23.116 17.143 22.452 18.0218 21.7834C18.1389 21.6942 18.2574 21.6554 18.4044 21.6559C19.728 21.6599 21.0516 21.6594 22.3752 21.6574C22.8947 21.6564 23.3685 21.5054 23.7879 21.1966C24.314 20.809 24.6258 20.2869 24.7304 19.6448C24.7618 19.451 24.7653 19.2512 24.7658 19.0544C24.7683 17.3576 24.7678 15.6614 24.7663 13.9646C24.7663 13.8625 24.7603 13.7598 24.7479 13.6582C24.7289 13.5048 24.7638 13.3787 24.8654 13.2542C25.2355 12.8008 25.5693 12.3201 25.8841 11.8269C25.9783 11.679 26.067 11.5275 26.1601 11.3786C26.182 11.3437 26.2109 11.3128 26.2413 11.2744C26.3365 11.3352 26.3733 11.4249 26.4197 11.5051C26.6438 11.8942 26.8042 12.3087 26.9019 12.747C26.9592 13.0041 26.9985 13.2636 26.997 13.5282C26.997 13.5939 26.9985 13.6597 26.9985 13.7255C26.9985 15.9194 26.999 18.1134 26.9975 20.3068C26.9975 20.4523 26.9935 20.6002 26.9671 20.7427C26.9019 21.0974 26.7315 21.4003 26.4759 21.6549C26.1651 21.9647 25.8552 22.2751 25.5454 22.586C25.4896 22.6423 25.4373 22.702 25.3865 22.7568C25.3999 22.8605 25.4712 22.9063 25.526 22.9616C25.8398 23.2784 26.1551 23.5943 26.472 23.9081C26.723 24.1572 26.8859 24.4536 26.9626 24.7979C26.9771 24.8616 26.9875 24.9269 26.992 24.9921C26.9985 25.0868 26.999 25.1819 26.999 25.2771C26.999 27.4636 26.998 29.6501 27 31.8365C27 32.2186 26.9681 32.5953 26.87 32.9649C26.5586 34.1371 25.8816 35.0363 24.8485 35.6685C24.3947 35.9465 23.901 36.1228 23.3799 36.2195C23.1876 36.2553 22.9919 36.2857 22.7926 36.2788C22.6247 36.2728 22.4563 36.2812 22.288 36.2812C16.4377 36.2812 10.5879 36.2812 4.73755 36.2812C4.58411 36.2812 4.43018 36.2813 4.27675 36.2783C3.33923 36.2608 2.50034 35.9554 1.75859 35.391C0.893299 34.7329 0.345331 33.8656 0.107214 32.8035C0.032989 32.4737 0.0225276 32.1374 0.00110701 31.8027C-0.00138376 31.7663 0.00110701 31.7294 0.00110701 31.6931C0.00110701 25.7623 0.00011064 19.8316 0.0026014 13.9008C0.0026014 13.3957 0.0499265 12.8955 0.200867 12.4078C0.456419 11.5818 0.912229 10.8889 1.5673 10.3294C2.18102 9.80533 2.89189 9.47703 3.68694 9.34053C3.89467 9.30516 4.10539 9.28125 4.3186 9.28175C5.48129 9.28573 6.64398 9.28324 7.80667 9.28324C12.7135 9.28324 17.6203 9.28424 22.5271 9.28125C22.8434 9.28125 23.1528 9.3211 23.4616 9.3779C23.5045 9.38587 23.5448 9.4043 23.5862 9.41775C23.5777 9.47604 23.5249 9.48201 23.4905 9.50194C22.539 10.0524 21.6488 10.6911 20.7965 11.3835C20.7681 11.4065 20.7372 11.4269 20.7103 11.4513C20.6411 11.5146 20.5599 11.536 20.4682 11.5315C20.4025 11.528 20.3367 11.5315 20.271 11.5315C15.0423 11.5315 9.81372 11.5315 4.58561 11.5305C4.34301 11.5305 4.10589 11.5564 3.87026 11.6137C3.1051 11.8 2.40071 12.4975 2.28663 13.3877C2.2672 13.5396 2.25326 13.6931 2.25326 13.846C2.25176 19.7987 2.25226 25.7514 2.25077 31.704C2.25077 32.1205 2.31403 32.521 2.51827 32.8877C2.85453 33.491 3.35866 33.8656 4.04312 33.9931C4.19555 34.0215 4.34699 34.0315 4.50042 34.0315C10.5111 34.0315 16.5224 34.031 22.5331 34.0325C22.8902 34.0325 23.231 33.9672 23.5493 33.8053C24.2059 33.4706 24.5994 32.9345 24.7294 32.2117C24.7628 32.0259 24.7653 31.8331 24.7658 31.6433C24.7683 29.932 24.7693 28.2213 24.7658 26.5101C24.7653 26.2186 24.7568 25.9242 24.6686 25.6418C24.3882 24.7406 23.7834 24.1836 22.8698 23.9634C22.7219 23.9275 22.5664 23.9166 22.414 23.9096C22.2421 23.9016 22.2222 23.9241 22.1854 24.1034C22.1619 24.218 22.1445 24.3336 22.1266 24.4491C21.9537 25.5406 21.5572 26.5474 20.9659 27.4775C19.993 29.0074 18.6749 30.1398 17.0175 30.8731C16.3943 31.1486 15.7457 31.3434 15.0732 31.4604C14.6697 31.5307 14.2652 31.5725 13.8562 31.5934C13.4751 31.6129 13.0951 31.5994 12.7175 31.573C12.2746 31.5421 11.8352 31.4624 11.4028 31.3533C9.82817 30.9563 8.45925 30.1901 7.30951 29.0458C6.06512 27.8073 5.25712 26.3228 4.8835 24.6061C4.8028 24.2354 4.75199 23.8593 4.7226 23.4792C4.70018 23.1868 4.68723 22.8953 4.69321 22.6034C4.70915 21.8551 4.81326 21.1193 5.019 20.399C5.5042 18.6997 6.42379 17.2739 7.75336 16.1167C8.90659 15.1134 10.2362 14.4538 11.7366 14.1459C12.037 14.0841 12.3389 14.0403 12.6452 14.0129C12.842 13.9955 13.0378 13.9785 13.235 13.979C13.2714 13.979 13.3083 13.978 13.3446 13.9805C13.4423 13.987 13.4667 14.0139 13.4732 14.119C13.4751 14.1484 13.4742 14.1773 13.4742 14.2067C13.4742 14.8065 13.4742 15.4058 13.4742 16.0056C13.4742 16.02 13.4742 16.035 13.4742 16.0494C13.4692 16.2024 13.4532 16.2183 13.2913 16.2243C12.5107 16.2527 11.755 16.4041 11.0347 16.708C9.30461 17.4383 8.08862 18.6788 7.38722 20.4204C7.18397 20.9246 7.05944 21.4506 6.99219 21.9882C6.93291 22.4599 6.92543 22.9332 6.97326 23.4094C7.02905 23.9659 7.13715 24.5079 7.3379 25.028C7.98849 26.7123 9.11531 27.9652 10.7503 28.7454C11.2798 28.9985 11.8387 29.1609 12.4201 29.256C12.8918 29.3332 13.3656 29.3611 13.8393 29.3287C14.6383 29.2744 15.412 29.1011 16.1477 28.7723C16.8696 28.45 17.5172 28.0185 18.0826 27.4671C18.6913 26.8732 19.167 26.1853 19.5118 25.4071C19.6781 25.032 19.8042 24.6434 19.8968 24.2439C19.9118 24.1796 19.9257 24.1154 19.9352 24.0506C19.9486 23.9579 19.9143 23.9166 19.8161 23.9096C19.7434 23.9046 19.6702 23.9061 19.597 23.9061C18.237 23.9061 16.8765 23.9061 15.5166 23.9061C15.4384 23.9061 15.3602 23.9016 15.2431 23.8987H15.2421Z" fill="url(#paint0_linear_146_2537)"/>
<path d="M9.61916 6.66044C9.59333 6.6135 9.58587 6.58503 9.56749 6.56905C9.49547 6.50712 9.41946 6.45018 9.34545 6.39075C8.57898 5.77595 7.9491 5.04179 7.44839 4.19526C7.21691 3.8037 7.01722 3.39767 6.87117 2.96516C6.76487 2.65052 6.6998 2.32689 6.6834 1.99776C6.66502 1.63518 6.72761 1.27908 6.89899 0.955453C7.17071 0.441539 7.60834 0.155865 8.17314 0.0529828C8.77022 -0.055893 9.33055 0.08145 9.87647 0.306693C10.4492 0.542923 10.9544 0.88803 11.4134 1.30156C12.1992 2.01025 12.8092 2.85379 13.2911 3.79421C13.3313 3.87213 13.3701 3.95104 13.4133 4.02745C13.4302 4.05642 13.4585 4.07889 13.4813 4.10436C13.5757 4.06341 13.5926 3.9785 13.6274 3.91008C13.8385 3.49955 14.0655 3.09851 14.3278 2.71844C14.8007 2.03322 15.3506 1.42042 16.0187 0.920992C16.4901 0.568894 17.0003 0.292709 17.5665 0.122404C17.9505 0.00653575 18.3415 -0.0224314 18.7339 0.0160247C19.6101 0.102926 20.2509 0.804126 20.2986 1.69011C20.3274 2.229 20.2192 2.73842 20.019 3.23285C19.7557 3.88261 19.3926 4.47294 18.9679 5.02731C18.5337 5.59416 18.031 6.09109 17.4612 6.5196C17.4205 6.55007 17.3813 6.58303 17.342 6.61599C17.3316 6.62498 17.3246 6.63897 17.3157 6.65045C17.3236 6.7014 17.3639 6.6999 17.3981 6.6954C17.4627 6.68691 17.5268 6.67393 17.5909 6.66044C19.1174 6.34031 20.5743 5.81541 21.9826 5.14967C22.1738 5.05927 22.3606 4.96038 22.5499 4.86599C22.5956 4.84302 22.6418 4.82154 22.6885 4.80156C22.9428 4.69069 23.2503 4.80856 23.3933 5.04179C23.5478 5.293 23.5026 5.60914 23.2771 5.79693C23.1996 5.86135 23.1077 5.9113 23.0173 5.95775C22.3363 6.30934 21.6354 6.61549 20.9196 6.88968C19.9658 7.25477 18.9937 7.55992 17.9962 7.77967C17.6416 7.85758 17.2829 7.92001 16.9248 7.98044C16.6381 8.02888 16.35 8.07133 16.0614 8.1023C15.8086 8.12977 15.5537 8.14275 15.2989 8.15174C15.0585 8.16023 14.8176 8.15374 14.5771 8.15574C14.2269 8.15873 13.8802 8.12278 13.5335 8.07833C13.4406 8.06634 13.3447 8.07483 13.2503 8.08032C13.1346 8.08731 13.0189 8.1023 12.9031 8.11129C12.7432 8.12377 12.5837 8.13776 12.4238 8.14375C12.2713 8.14925 12.1178 8.14875 11.9653 8.14375C11.8346 8.13926 11.704 8.11978 11.5733 8.11628C11.0413 8.1038 10.5158 8.03288 9.99122 7.94698C7.889 7.60337 5.90501 6.90217 4.00397 5.94925C3.92549 5.9098 3.84651 5.87134 3.77348 5.8234C3.44017 5.60465 3.4357 5.10821 3.7253 4.87648C3.9076 4.73015 4.11028 4.71616 4.32338 4.79008C4.37107 4.80656 4.41577 4.83303 4.46147 4.8565C5.94823 5.61713 7.50104 6.19697 9.12539 6.58053C9.21034 6.60051 9.29478 6.62448 9.38072 6.63897C9.45026 6.65095 9.52179 6.65195 9.61866 6.66044H9.61916ZM8.55066 1.19818C8.47764 1.21216 8.35346 1.22365 8.23672 1.26011C8.06733 1.31304 7.95358 1.42991 7.89744 1.60471C7.86068 1.71908 7.85621 1.83495 7.85671 1.95182C7.8587 2.24248 7.94464 2.51517 8.05044 2.78137C8.26255 3.31626 8.56258 3.80071 8.90583 4.25868C9.67529 5.28601 10.6554 6.03066 11.857 6.48015C12.3299 6.65695 12.8167 6.77381 13.3119 6.86221C13.3964 6.8772 13.4878 6.8727 13.5727 6.85922C13.7878 6.82426 14.0029 6.7853 14.2155 6.73636C14.9378 6.57005 15.6218 6.30535 16.2561 5.91729C17.351 5.24805 18.1592 4.31362 18.7538 3.18241C18.9246 2.85678 19.0617 2.51767 19.1189 2.15209C19.1402 2.01574 19.1487 1.87341 19.1338 1.73706C19.1025 1.4439 18.9291 1.25261 18.6157 1.20167C18.4239 1.17071 18.2362 1.18619 18.0529 1.22365C17.7593 1.28308 17.4811 1.39295 17.2178 1.53979C16.7613 1.79499 16.3634 2.12412 16.0033 2.50269C15.4797 3.05256 15.0645 3.67885 14.7177 4.35258C14.4862 4.80256 14.295 5.26953 14.1336 5.74898C14.0844 5.89482 14.0029 6.01118 13.8733 6.0891C13.7257 6.1775 13.5568 6.21495 13.3909 6.20097C13.1396 6.17999 12.9568 6.04614 12.8718 5.79543C12.8227 5.6501 12.768 5.50626 12.7134 5.36242C12.3264 4.34708 11.8038 3.41365 11.0691 2.60857C10.632 2.12911 10.1378 1.72308 9.54613 1.44789C9.2456 1.30805 8.93266 1.21965 8.55017 1.19917L8.55066 1.19818Z" fill="url(#paint1_linear_146_2537)"/>
<path d="M26.0151 9.42188C25.9885 9.4918 25.9724 9.5446 25.9494 9.59399C25.7751 9.96754 25.5598 10.3181 25.3208 10.6555C24.8082 11.3782 24.2208 12.0397 23.5882 12.6636C23.4898 12.7604 23.3924 12.8587 23.291 12.9526C23.1067 13.1223 23.0249 13.3266 23.0535 13.5726C23.0585 13.6151 23.061 13.6586 23.059 13.7017C23.052 13.8572 23.0073 14.0019 22.8913 14.1119C22.6699 14.3221 22.442 14.5265 22.2161 14.7319C22.2015 14.7456 22.1784 14.7505 22.1453 14.7656C22.1056 14.6771 22.0931 14.5876 22.0805 14.4972C22.0549 14.3129 22.0213 14.129 21.9967 13.9447C21.9866 13.8689 21.954 13.8102 21.9018 13.7559C21.7055 13.5516 21.5082 13.3482 21.3149 13.1408C21.236 13.0563 21.1401 13.0142 21.0287 12.9927C20.7982 12.9477 20.5678 12.9017 20.3379 12.8543C20.3118 12.8489 20.2892 12.8294 20.25 12.8079C20.2922 12.7624 20.3228 12.7243 20.3589 12.6915C20.5417 12.5248 20.73 12.3634 20.9087 12.1923C21.0864 12.0221 21.2983 11.9551 21.5353 12.0016C21.8164 12.0563 22.0368 11.9678 22.2412 11.7894C22.9109 11.2031 23.6203 10.6667 24.3799 10.1944C24.7901 9.93918 25.2148 9.70889 25.6652 9.527C25.7711 9.48446 25.8745 9.43117 26.0156 9.42188H26.0151Z" fill="url(#paint2_linear_146_2537)"/>
<path d="M21.1261 13.6406C21.2295 13.7044 21.3001 13.8011 21.3748 13.9133C21.3181 13.9756 21.2713 14.0304 21.2211 14.0813C20.1726 15.1416 19.1236 16.2009 18.0752 17.2612C16.5641 18.789 15.0516 20.3154 13.5441 21.8468C13.1999 22.1962 12.8368 22.5237 12.4697 22.8473C11.7625 23.4704 11.0552 24.0935 10.3479 24.7161C10.3276 24.734 10.3047 24.7495 10.2654 24.75C10.3106 24.6972 10.3529 24.6423 10.4012 24.5925C10.5489 24.4404 10.6986 24.2904 10.8473 24.1398C11.7719 23.2042 12.7005 22.272 13.6202 21.3313C14.6781 20.2496 15.7281 19.1604 16.781 18.0742C17.7628 17.0613 18.7446 16.0488 19.7265 15.0359C20.1283 14.6212 20.5297 14.2059 20.9326 13.7927C20.9873 13.7363 21.0316 13.6646 21.1266 13.6411L21.1261 13.6406Z" fill="url(#paint3_linear_146_2537)"/>
<path d="M16.7346 17.4244C16.753 17.4029 16.7709 17.3808 16.7903 17.3607C17.9533 16.1278 19.1157 14.8954 20.2792 13.6629C20.3647 13.5721 20.4523 13.4832 20.5418 13.3969C20.5801 13.3602 20.6259 13.3386 20.6721 13.3888C20.6671 13.4064 20.6676 13.424 20.6592 13.4325C19.3604 14.7678 18.0607 16.1027 16.7615 17.4375C16.7525 17.433 16.7441 17.429 16.7351 17.4244H16.7346Z" fill="url(#paint4_linear_146_2537)"/>
<path d="M21.6138 14.2031C21.6682 14.257 21.6642 14.3027 21.636 14.3393C21.5916 14.3978 21.5407 14.4511 21.4894 14.5035C20.6769 15.3233 19.8639 16.142 19.0515 16.9613C18.8914 17.1224 18.7324 17.2845 18.5625 17.4375C18.5902 17.3526 18.6539 17.2962 18.7112 17.2357C19.1211 16.8032 19.532 16.3723 19.942 15.9397C20.4324 15.4219 20.9224 14.903 21.4128 14.3851C21.4726 14.3221 21.5264 14.2499 21.6143 14.2041L21.6138 14.2031Z" fill="url(#paint5_linear_146_2537)"/>
<path d="M40.36 22.1406C41.0427 22.3113 41.5867 22.6473 41.992 23.1486C42.408 23.6393 42.616 24.2633 42.616 25.0206C42.616 25.9593 42.296 26.7166 41.656 27.2926C41.0267 27.858 40.104 28.1406 38.888 28.1406H34.392V16.7806H38.344C39.528 16.7806 40.44 17.0153 41.08 17.4846C41.72 17.9433 42.04 18.6313 42.04 19.5486C42.04 20.114 41.896 20.6313 41.608 21.1006C41.3307 21.5593 40.9147 21.9006 40.36 22.1246V22.1406ZM36.328 18.5086V21.4846H38.168C38.7013 21.4846 39.1493 21.362 39.512 21.1166C39.8853 20.8606 40.072 20.482 40.072 19.9806C40.072 18.9886 39.3733 18.498 37.976 18.5086H36.328ZM38.312 26.4126C39.016 26.402 39.5707 26.2633 39.976 25.9966C40.392 25.73 40.6 25.3353 40.6 24.8126C40.6 24.3006 40.4027 23.8953 40.008 23.5966C39.624 23.298 39.0693 23.1486 38.344 23.1486H36.328V26.4126H38.312ZM50.1645 20.3326H51.9565V28.1406H50.1645V27.1166C49.5245 27.8846 48.7192 28.2686 47.7485 28.2686C45.7965 28.2686 44.8205 27.2073 44.8205 25.0846V20.3326H46.6125V24.6046C46.6125 25.362 46.7298 25.89 46.9645 26.1886C47.2098 26.4873 47.6098 26.6366 48.1645 26.6366C48.7192 26.6366 49.1885 26.4126 49.5725 25.9646C49.9672 25.506 50.1645 24.8766 50.1645 24.0766V20.3326ZM54.8425 28.1406V16.3646H56.6345V28.1406H54.8425ZM59.7019 28.1406V16.3646H61.4939V28.1406H59.7019ZM71.5853 24.1406C71.5853 24.3326 71.5693 24.5726 71.5373 24.8606H65.8413C65.9586 25.4153 66.2146 25.8526 66.6093 26.1726C67.0039 26.482 67.4893 26.6366 68.0653 26.6366C68.8759 26.6366 69.5266 26.3326 70.0173 25.7246L71.2653 26.7966C70.5079 27.778 69.4093 28.2686 67.9693 28.2686C66.8173 28.2686 65.8626 27.9006 65.1053 27.1646C64.3586 26.418 63.9853 25.442 63.9853 24.2366C63.9853 23.0526 64.3426 22.0873 65.0573 21.3406C65.7826 20.594 66.6946 20.2206 67.7933 20.2206C68.9346 20.2206 69.8519 20.5886 70.5453 21.3246C71.2386 22.05 71.5853 22.9886 71.5853 24.1406ZM69.1213 22.2686C68.8013 21.9806 68.3906 21.8366 67.8893 21.8366C67.3879 21.8366 66.9559 21.9753 66.5933 22.2526C66.2413 22.53 66.0013 22.9193 65.8733 23.4206H69.7773C69.6599 22.93 69.4413 22.546 69.1213 22.2686ZM76.2536 28.2686C75.571 28.2686 75.0376 28.05 74.6536 27.6126C74.2696 27.1753 74.0776 26.53 74.0776 25.6766V21.8526H73.1176V20.3326H74.0776V17.7406L75.8696 17.5486V20.3326H78.1576V21.8526H75.8696V25.5006C75.8696 25.8953 75.9283 26.178 76.0456 26.3486C76.163 26.5086 76.355 26.5886 76.6216 26.5886C76.9736 26.5886 77.3576 26.4766 77.7736 26.2526L78.2376 27.8046C77.6723 28.114 77.011 28.2686 76.2536 28.2686ZM85.7174 28.2366C84.0427 28.2366 82.6667 27.7193 81.5894 26.6846C80.5227 25.6393 79.9894 24.2366 79.9894 22.4766C79.9894 20.77 80.5014 19.3726 81.5254 18.2846C82.56 17.1966 83.936 16.6526 85.6534 16.6526C86.4747 16.6526 87.2747 16.8126 88.0534 17.1326C88.832 17.442 89.5094 17.906 90.0854 18.5246L88.7254 19.7086C87.8827 18.8873 86.8534 18.4766 85.6374 18.4766C84.592 18.4766 83.7227 18.8446 83.0294 19.5806C82.3467 20.306 82.0054 21.2713 82.0054 22.4766C82.0054 23.6286 82.3414 24.5833 83.0134 25.3406C83.696 26.098 84.5974 26.4766 85.7174 26.4766C86.6454 26.4766 87.488 26.226 88.2454 25.7246V23.8046H85.4614V22.0766H90.1654V26.8126C89.6427 27.25 88.9867 27.5966 88.1974 27.8526C87.408 28.1086 86.5814 28.2366 85.7174 28.2366ZM94.774 18.8286C94.5393 19.0633 94.2567 19.1806 93.926 19.1806C93.5953 19.1806 93.3127 19.0633 93.078 18.8286C92.8433 18.594 92.726 18.3113 92.726 17.9806C92.726 17.6606 92.8433 17.3833 93.078 17.1486C93.3127 16.914 93.5953 16.7966 93.926 16.7966C94.2567 16.7966 94.5393 16.914 94.774 17.1486C95.0193 17.3833 95.142 17.6606 95.142 17.9806C95.142 18.3113 95.0193 18.594 94.774 18.8286ZM93.03 28.1406V20.3326H94.822V28.1406H93.03ZM98.0654 28.1406V21.8526H97.2014V20.3326H98.0654V18.9086C98.0654 18.034 98.268 17.3726 98.6734 16.9246C99.0787 16.466 99.6654 16.2366 100.433 16.2366C101.18 16.2366 101.831 16.418 102.385 16.7806L101.985 18.2846C101.42 18.018 100.988 17.8846 100.689 17.8846C100.135 17.8846 99.8574 18.29 99.8574 19.1006V20.3326H101.777V21.8526H99.8574V28.1406H98.0654ZM106.019 28.2686C105.337 28.2686 104.803 28.05 104.419 27.6126C104.035 27.1753 103.843 26.53 103.843 25.6766V21.8526H102.883V20.3326H103.843V17.7406L105.635 17.5486V20.3326H107.923V21.8526H105.635V25.5006C105.635 25.8953 105.694 26.178 105.811 26.3486C105.929 26.5086 106.121 26.5886 106.387 26.5886C106.739 26.5886 107.123 26.4766 107.539 26.2526L108.003 27.8046C107.438 28.114 106.777 28.2686 106.019 28.2686ZM115.483 28.2366C113.862 28.2366 112.502 27.73 111.403 26.7166C110.304 25.6926 109.755 24.2846 109.755 22.4926C109.755 20.818 110.262 19.426 111.275 18.3166C112.299 17.2073 113.702 16.6526 115.483 16.6526C117.286 16.6526 118.779 17.378 119.963 18.8286L118.539 20.0286C117.686 18.994 116.667 18.4766 115.483 18.4766C114.374 18.4766 113.478 18.85 112.795 19.5966C112.112 20.3326 111.771 21.298 111.771 22.4926C111.771 23.6553 112.118 24.6046 112.811 25.3406C113.504 26.066 114.395 26.4286 115.483 26.4286C116.688 26.4286 117.707 25.9113 118.539 24.8766L119.963 26.0926C118.811 27.522 117.318 28.2366 115.483 28.2366ZM127.865 20.3326H129.657V28.1406H127.945V27.1006H127.913C127.337 27.8793 126.51 28.2686 125.433 28.2686C124.334 28.2686 123.427 27.9006 122.713 27.1646C122.009 26.4286 121.657 25.4633 121.657 24.2686C121.657 23.0953 122.014 22.13 122.729 21.3726C123.443 20.6046 124.339 20.2206 125.417 20.2206C126.441 20.2206 127.246 20.5726 127.833 21.2766H127.865V20.3326ZM125.721 26.6366C126.339 26.6366 126.862 26.418 127.289 25.9806C127.726 25.5433 127.945 24.978 127.945 24.2846C127.945 23.5913 127.731 23.01 127.305 22.5406C126.889 22.0713 126.361 21.8366 125.721 21.8366C125.081 21.8366 124.547 22.0606 124.121 22.5086C123.694 22.9566 123.481 23.5486 123.481 24.2846C123.481 24.978 123.689 25.5433 124.105 25.9806C124.521 26.418 125.059 26.6366 125.721 26.6366ZM136.658 20.2206H136.882V22.2206C136.605 22.1993 136.423 22.1886 136.338 22.1886C135.677 22.1886 135.154 22.402 134.77 22.8286C134.397 23.2446 134.21 23.7833 134.21 24.4446V28.1406H132.418V20.3326H134.21V21.5166H134.226C134.855 20.6526 135.666 20.2206 136.658 20.2206ZM144.46 16.3646H146.236V28.1406H144.524V27.1006H144.492C143.895 27.8793 143.052 28.2686 141.964 28.2686C140.866 28.2686 139.959 27.9006 139.244 27.1646C138.53 26.4286 138.172 25.4633 138.172 24.2686C138.172 23.0953 138.53 22.13 139.244 21.3726C139.97 20.6046 140.871 20.2206 141.948 20.2206C142.994 20.2206 143.82 20.5726 144.428 21.2766H144.46V16.3646ZM140.62 25.9806C141.047 26.418 141.586 26.6366 142.236 26.6366C142.887 26.6366 143.431 26.418 143.868 25.9806C144.306 25.5433 144.524 24.978 144.524 24.2846C144.524 23.5806 144.311 22.9993 143.884 22.5406C143.458 22.0713 142.914 21.8366 142.252 21.8366C141.612 21.8366 141.074 22.0606 140.636 22.5086C140.21 22.9566 139.996 23.5486 139.996 24.2846C139.996 24.978 140.204 25.5433 140.62 25.9806ZM151.57 28.2686C150.322 28.2686 149.272 27.89 148.418 27.1326L149.314 25.7886C149.933 26.3966 150.685 26.7006 151.57 26.7006C151.912 26.7006 152.178 26.6313 152.37 26.4926C152.562 26.354 152.658 26.1673 152.658 25.9326C152.658 25.7513 152.546 25.602 152.322 25.4846C152.109 25.3566 151.709 25.1913 151.122 24.9886C150.354 24.722 149.762 24.402 149.346 24.0286C148.941 23.6553 148.738 23.122 148.738 22.4286C148.738 21.7886 148.994 21.2606 149.506 20.8446C150.029 20.4286 150.69 20.2206 151.49 20.2206C152.525 20.2206 153.442 20.546 154.242 21.1966L153.346 22.6046C152.76 22.05 152.109 21.7726 151.394 21.7726C151.181 21.7726 150.984 21.8313 150.802 21.9486C150.632 22.0553 150.546 22.2206 150.546 22.4446C150.546 22.7646 150.957 23.0793 151.778 23.3886C152.792 23.7833 153.426 24.0713 153.682 24.2526C154.216 24.626 154.482 25.1753 154.482 25.9006C154.482 26.594 154.232 27.1646 153.73 27.6126C153.24 28.05 152.52 28.2686 151.57 28.2686Z" fill="#D1AE82"/>
<defs>
<linearGradient id="paint0_linear_146_2537" x1="13.5" y1="9.28125" x2="13.5" y2="36.2812" gradientUnits="userSpaceOnUse">
<stop stop-color="#D1AE82"/>
<stop offset="1" stop-color="#E6D0AB"/>
</linearGradient>
<linearGradient id="paint1_linear_146_2537" x1="13.4998" y1="0" x2="13.4998" y2="8.15625" gradientUnits="userSpaceOnUse">
<stop stop-color="#D1AE82"/>
<stop offset="1" stop-color="#E6D0AB"/>
</linearGradient>
<linearGradient id="paint2_linear_146_2537" x1="23.1328" y1="9.42188" x2="23.1328" y2="14.7656" gradientUnits="userSpaceOnUse">
<stop stop-color="#D1AE82"/>
<stop offset="1" stop-color="#E6D0AB"/>
</linearGradient>
<linearGradient id="paint3_linear_146_2537" x1="15.8201" y1="13.6406" x2="15.8201" y2="24.75" gradientUnits="userSpaceOnUse">
<stop stop-color="#D1AE82"/>
<stop offset="1" stop-color="#FEE2AC"/>
</linearGradient>
<linearGradient id="paint4_linear_146_2537" x1="18.7034" y1="13.3594" x2="18.7034" y2="17.4375" gradientUnits="userSpaceOnUse">
<stop stop-color="#D1AE82"/>
<stop offset="1" stop-color="#FEE2AC"/>
</linearGradient>
<linearGradient id="paint5_linear_146_2537" x1="20.1094" y1="14.2031" x2="20.1094" y2="17.4375" gradientUnits="userSpaceOnUse">
<stop stop-color="#D1AE82"/>
<stop offset="1" stop-color="#FEE2AC"/>
</linearGradient>
</defs>
</svg>
