<svg width="174" height="205" viewBox="0 0 174 205" fill="none" xmlns="http://www.w3.org/2000/svg">
<rect x="0.5" width="173" height="205" rx="16" fill="url(#paint0_linear_406_4376)"/>
<rect x="10.5" y="10" width="153" height="153" rx="8" fill="white"/>
<g clip-path="url(#clip0_406_4376)">
<path d="M78.071 24H84.023V29.9519H78.071V24Z" fill="#525153"/>
<path d="M78.071 24H84.023V29.9519H78.071V24Z" fill="black" fill-opacity="0.2"/>
<path d="M95.929 24H101.883V29.9519H95.929V24Z" fill="#525153"/>
<path d="M95.929 24H101.883V29.9519H95.929V24Z" fill="black" fill-opacity="0.2"/>
<path d="M24.5 24V65.6673H66.1673V24H24.5ZM60.2135 59.7135H30.4519V29.9519H60.2135V59.7135Z" fill="#525153"/>
<path d="M24.5 24V65.6673H66.1673V24H24.5ZM60.2135 59.7135H30.4519V29.9519H60.2135V59.7135Z" fill="black" fill-opacity="0.2"/>
<path d="M84.0232 29.9519H95.929V35.9038H101.881V41.8577H89.977V35.9038H84.0232V29.9519Z" fill="#525153"/>
<path d="M84.0232 29.9519H95.929V35.9038H101.881V41.8577H89.977V35.9038H84.0232V29.9519Z" fill="black" fill-opacity="0.2"/>
<path d="M107.835 24V65.6673H149.5V24H107.835ZM143.546 59.7135H113.787V29.9519H143.548L143.546 59.7135Z" fill="#525153"/>
<path d="M107.835 24V65.6673H149.5V24H107.835ZM143.546 59.7135H113.787V29.9519H143.548L143.546 59.7135Z" fill="black" fill-opacity="0.2"/>
<path d="M36.4038 35.9038H54.2615V53.7615H36.4038V35.9038Z" fill="#525153"/>
<path d="M36.4038 35.9038H54.2615V53.7615H36.4038V35.9038Z" fill="black" fill-opacity="0.2"/>
<path d="M72.1191 35.9038H78.0711V41.8577H84.023V47.8096H95.9288V53.7615H101.881V71.6192H95.9288V77.5711H101.881V83.523H89.9768V89.4769H84.023V77.5711H89.9768V71.6192H84.023V77.5711H78.0711V65.6673H84.023V53.7615H78.0711V47.8096H72.1191V35.9038Z" fill="#525153"/>
<path d="M72.1191 35.9038H78.0711V41.8577H84.023V47.8096H95.9288V53.7615H101.881V71.6192H95.9288V77.5711H101.881V83.523H89.9768V89.4769H84.023V77.5711H89.9768V71.6192H84.023V77.5711H78.0711V65.6673H84.023V53.7615H78.0711V47.8096H72.1191V35.9038Z" fill="black" fill-opacity="0.2"/>
<path d="M119.737 35.9038H137.594V53.7615H119.737V35.9038Z" fill="#525153"/>
<path d="M119.737 35.9038H137.594V53.7615H119.737V35.9038Z" fill="black" fill-opacity="0.2"/>
<path d="M72.1191 59.7134H78.073V65.6672H72.1191V59.7134Z" fill="#525153"/>
<path d="M72.1191 59.7134H78.073V65.6672H72.1191V59.7134Z" fill="black" fill-opacity="0.2"/>
<path d="M42.3577 71.6191H54.2615V77.5711H60.2134V83.523H66.1673V89.4768H60.2134V95.4288H66.1673V89.4768H72.1192V95.4288H78.0711V101.381H89.9769V95.4288H95.9288V107.333H89.9769V113.286H72.1192V101.381H42.3577V95.4288H48.3096V89.4768H54.2615V83.523H48.3096V77.5711H42.3577V71.6191Z" fill="#525153"/>
<path d="M42.3577 71.6191H54.2615V77.5711H60.2134V83.523H66.1673V89.4768H60.2134V95.4288H66.1673V89.4768H72.1192V95.4288H78.0711V101.381H89.9769V95.4288H95.9288V107.333H89.9769V113.286H72.1192V101.381H42.3577V95.4288H48.3096V89.4768H54.2615V83.523H48.3096V77.5711H42.3577V71.6191Z" fill="black" fill-opacity="0.2"/>
<path d="M60.2134 71.6191H72.1172V77.573H60.2134V71.6191Z" fill="#525153"/>
<path d="M60.2134 71.6191H72.1172V77.573H60.2134V71.6191Z" fill="black" fill-opacity="0.2"/>
<path d="M125.69 71.6191H137.596V77.5711H131.644V89.4768H125.69V83.523H119.737V89.4768H125.69V95.4288H137.596V89.4768H143.546V95.4288H149.5V101.381H143.546V107.333H137.596V113.286H149.5V125.19H143.546V119.236H137.596V125.19H131.644V113.286H125.69V107.333H131.644V101.381H113.787V107.333H101.881V89.4768H113.787V83.523H107.835V77.5711H125.69V71.6191Z" fill="#525153"/>
<path d="M125.69 71.6191H137.596V77.5711H131.644V89.4768H125.69V83.523H119.737V89.4768H125.69V95.4288H137.596V89.4768H143.546V95.4288H149.5V101.381H143.546V107.333H137.596V113.286H149.5V125.19H143.546V119.236H137.596V125.19H131.644V113.286H125.69V107.333H131.644V101.381H113.787V107.333H101.881V89.4768H113.787V83.523H107.835V77.5711H125.69V71.6191Z" fill="black" fill-opacity="0.2"/>
<path d="M24.5 77.571H36.4038V83.523H48.3096V89.4768H36.4038V95.4287H30.4519V83.523H24.5V77.571Z" fill="#525153"/>
<path d="M24.5 77.571H36.4038V83.523H48.3096V89.4768H36.4038V95.4287H30.4519V83.523H24.5V77.571Z" fill="black" fill-opacity="0.2"/>
<path d="M72.1191 77.571H78.073V89.4749H72.1191V77.571Z" fill="#525153"/>
<path d="M72.1191 77.571H78.073V89.4749H72.1191V77.571Z" fill="black" fill-opacity="0.2"/>
<path d="M143.546 77.571H149.5V89.4749H143.546V77.571Z" fill="#525153"/>
<path d="M143.546 77.571H149.5V89.4749H143.546V77.571Z" fill="black" fill-opacity="0.2"/>
<path d="M24.5 95.429H30.4519V101.383H24.5V95.429Z" fill="#525153"/>
<path d="M24.5 95.429H30.4519V101.383H24.5V95.429Z" fill="black" fill-opacity="0.2"/>
<path d="M24.5 107.333V149H66.1673V107.333H24.5ZM60.2135 143.046H30.4519V113.287H60.2135V143.046Z" fill="#525153"/>
<path d="M24.5 107.333V149H66.1673V107.333H24.5ZM60.2135 143.046H30.4519V113.287H60.2135V143.046Z" fill="black" fill-opacity="0.2"/>
<path d="M95.929 113.287H101.883V119.239H95.929V113.287Z" fill="#525153"/>
<path d="M95.929 113.287H101.883V119.239H95.929V113.287Z" fill="black" fill-opacity="0.2"/>
<path d="M36.4038 119.237H54.2615V137.094H36.4038V119.237Z" fill="#525153"/>
<path d="M36.4038 119.237H54.2615V137.094H36.4038V119.237Z" fill="black" fill-opacity="0.2"/>
<path d="M72.1191 119.237H78.0711V125.19H84.023V131.142H89.9768V137.096H95.9288V143.046H84.023V149H78.0711V131.142H72.1191V119.237Z" fill="#525153"/>
<path d="M72.1191 119.237H78.0711V125.19H84.023V131.142H89.9768V137.096H95.9288V143.046H84.023V149H78.0711V131.142H72.1191V119.237Z" fill="black" fill-opacity="0.2"/>
<path d="M84.0232 119.237H95.927V125.19H84.0232V119.237Z" fill="#525153"/>
<path d="M84.0232 119.237H95.927V125.19H84.0232V119.237Z" fill="black" fill-opacity="0.2"/>
<path d="M107.835 119.237H113.787V125.19H119.737V119.237H125.69V131.142H131.644V143.046H125.69V137.096H119.737V143.046H125.69V149H113.787V131.142H107.835V119.237Z" fill="#525153"/>
<path d="M107.835 119.237H113.787V125.19H119.737V119.237H125.69V131.142H131.644V143.046H125.69V137.096H119.737V143.046H125.69V149H113.787V131.142H107.835V119.237Z" fill="black" fill-opacity="0.2"/>
<path d="M137.596 131.142H149.5V143.046H137.596V131.142Z" fill="#525153"/>
<path d="M137.596 131.142H149.5V143.046H137.596V131.142Z" fill="black" fill-opacity="0.2"/>
<path d="M101.881 137.096H107.835V143.048H101.881V137.096Z" fill="#525153"/>
<path d="M101.881 137.096H107.835V143.048H101.881V137.096Z" fill="black" fill-opacity="0.2"/>
<path d="M95.929 143.046H101.883V149H95.929V143.046Z" fill="#525153"/>
<path d="M95.929 143.046H101.883V149H95.929V143.046Z" fill="black" fill-opacity="0.2"/>
<path d="M131.644 143.046H137.596V149H131.644V143.046Z" fill="#525153"/>
<path d="M131.644 143.046H137.596V149H131.644V143.046Z" fill="black" fill-opacity="0.2"/>
</g>
<path d="M50.6776 187.978L49.6416 189.294L48.4236 188.174C47.5556 188.799 46.5336 189.112 45.3576 189.112C43.8643 189.112 42.6416 188.636 41.6896 187.684C40.747 186.723 40.2756 185.505 40.2756 184.03C40.2756 182.546 40.747 181.328 41.6896 180.376C42.6416 179.415 43.8643 178.934 45.3576 178.934C46.823 178.934 48.0316 179.41 48.9836 180.362C49.9356 181.305 50.4117 182.527 50.4117 184.03C50.4117 185.15 50.1317 186.139 49.5717 186.998L50.6776 187.978ZM45.3576 187.278C45.9363 187.278 46.4636 187.129 46.9396 186.83L46.0296 186.004L47.0516 184.758L48.0036 185.612C48.237 185.117 48.3536 184.59 48.3536 184.03C48.3536 183.115 48.0736 182.345 47.5136 181.72C46.9536 181.095 46.235 180.782 45.3576 180.782C44.4896 180.782 43.7663 181.09 43.1876 181.706C42.609 182.322 42.3196 183.097 42.3196 184.03C42.3196 184.963 42.609 185.738 43.1876 186.354C43.7663 186.97 44.4896 187.278 45.3576 187.278ZM58.3632 189L57.6912 187.012H53.8692L53.1972 189H51.1392L54.8212 179.06H56.7112L60.4212 189H58.3632ZM54.4432 185.332H57.1172L55.7872 181.426H55.7592L54.4432 185.332ZM61.8406 189V179.06H65.5226C66.68 179.06 67.5433 179.363 68.1126 179.97C68.6913 180.567 68.9806 181.365 68.9806 182.364C68.9806 183.428 68.654 184.235 68.0006 184.786C67.3566 185.327 66.47 185.598 65.3406 185.598H63.7866V189H61.8406ZM63.7866 183.848H65.0886C65.6953 183.848 66.1526 183.713 66.4606 183.442C66.778 183.171 66.9366 182.798 66.9366 182.322C66.9366 181.855 66.7826 181.487 66.4746 181.216C66.1666 180.945 65.7326 180.81 65.1726 180.81H63.7866V183.848ZM72.301 189V181.678L70.691 182.882L69.781 181.468L72.693 179.382H74.219V189H72.301ZM79.8238 189V187.432H75.7498V186.214L80.1598 179.382H81.6998V185.794H82.9878V187.432H81.6998V189H79.8238ZM77.8218 185.892H79.9638V182.448L77.8218 185.892ZM85.8721 189V181.678L84.2621 182.882L83.3521 181.468L86.2641 179.382H87.7901V189H85.8721ZM92.3159 187.264H95.8299V189H89.5579L89.5299 187.754L92.5259 184.59C92.9646 184.114 93.2866 183.708 93.4919 183.372C93.7066 183.036 93.8139 182.691 93.8139 182.336C93.8139 181.963 93.6926 181.655 93.4499 181.412C93.2073 181.16 92.8993 181.034 92.5259 181.034C91.8259 181.034 91.2706 181.379 90.8599 182.07L89.4879 181.09C90.1506 179.877 91.2146 179.27 92.6799 179.27C93.5199 179.27 94.2386 179.531 94.8359 180.054C95.4333 180.577 95.7319 181.267 95.7319 182.126C95.7319 182.695 95.6153 183.223 95.3819 183.708C95.1579 184.184 94.7426 184.735 94.1359 185.36L92.3159 187.236V187.264ZM96.8574 179.382H102.835V180.628L99.4894 189.21L97.5994 188.86L100.749 181.104H96.8574V179.382ZM107.586 182.84C108.426 182.84 109.126 183.115 109.686 183.666C110.255 184.217 110.54 184.973 110.54 185.934C110.54 186.867 110.209 187.633 109.546 188.23C108.893 188.818 108.067 189.112 107.068 189.112C106.069 189.112 105.243 188.757 104.59 188.048C103.937 187.329 103.61 186.401 103.61 185.262C103.61 183.703 104.077 182.35 105.01 181.202C105.953 180.054 107.18 179.34 108.692 179.06L109.238 180.586C107.455 181.09 106.307 181.986 105.794 183.274L105.808 183.288C106.331 182.989 106.923 182.84 107.586 182.84ZM107.124 187.404C107.572 187.404 107.941 187.259 108.23 186.97C108.529 186.671 108.678 186.312 108.678 185.892C108.678 185.463 108.533 185.113 108.244 184.842C107.955 184.571 107.572 184.436 107.096 184.436C106.452 184.436 105.897 184.721 105.43 185.29V185.43C105.43 186.018 105.593 186.494 105.92 186.858C106.247 187.222 106.648 187.404 107.124 187.404ZM115.679 189V187.432H111.605V186.214L116.015 179.382H117.555V185.794H118.843V187.432H117.555V189H115.679ZM113.677 185.892H115.819V182.448L113.677 185.892ZM119.702 179.382H125.68V180.628L122.334 189.21L120.444 188.86L123.594 181.104H119.702V179.382ZM130.323 189.112C128.913 189.112 127.705 188.589 126.697 187.544L127.873 186.088C128.227 186.499 128.624 186.811 129.063 187.026C129.501 187.231 129.931 187.334 130.351 187.334C130.817 187.334 131.172 187.241 131.415 187.054C131.657 186.858 131.779 186.601 131.779 186.284C131.779 185.939 131.653 185.677 131.401 185.5C131.149 185.313 130.696 185.108 130.043 184.884C129.595 184.725 129.221 184.576 128.923 184.436C128.624 184.287 128.316 184.091 127.999 183.848C127.681 183.605 127.443 183.311 127.285 182.966C127.126 182.621 127.047 182.224 127.047 181.776C127.047 180.983 127.355 180.315 127.971 179.774C128.587 179.233 129.343 178.953 130.239 178.934C131.452 178.925 132.567 179.345 133.585 180.194L132.451 181.678C131.667 181.025 130.943 180.698 130.281 180.698C129.926 180.698 129.637 180.787 129.413 180.964C129.198 181.141 129.091 181.384 129.091 181.692C129.081 181.981 129.198 182.215 129.441 182.392C129.683 182.56 130.122 182.77 130.757 183.022C131.783 183.423 132.455 183.731 132.773 183.946C133.482 184.431 133.837 185.136 133.837 186.06C133.837 187.059 133.482 187.819 132.773 188.342C132.063 188.855 131.247 189.112 130.323 189.112Z" fill="#525153"/>
<path d="M50.6776 187.978L49.6416 189.294L48.4236 188.174C47.5556 188.799 46.5336 189.112 45.3576 189.112C43.8643 189.112 42.6416 188.636 41.6896 187.684C40.747 186.723 40.2756 185.505 40.2756 184.03C40.2756 182.546 40.747 181.328 41.6896 180.376C42.6416 179.415 43.8643 178.934 45.3576 178.934C46.823 178.934 48.0316 179.41 48.9836 180.362C49.9356 181.305 50.4117 182.527 50.4117 184.03C50.4117 185.15 50.1317 186.139 49.5717 186.998L50.6776 187.978ZM45.3576 187.278C45.9363 187.278 46.4636 187.129 46.9396 186.83L46.0296 186.004L47.0516 184.758L48.0036 185.612C48.237 185.117 48.3536 184.59 48.3536 184.03C48.3536 183.115 48.0736 182.345 47.5136 181.72C46.9536 181.095 46.235 180.782 45.3576 180.782C44.4896 180.782 43.7663 181.09 43.1876 181.706C42.609 182.322 42.3196 183.097 42.3196 184.03C42.3196 184.963 42.609 185.738 43.1876 186.354C43.7663 186.97 44.4896 187.278 45.3576 187.278ZM58.3632 189L57.6912 187.012H53.8692L53.1972 189H51.1392L54.8212 179.06H56.7112L60.4212 189H58.3632ZM54.4432 185.332H57.1172L55.7872 181.426H55.7592L54.4432 185.332ZM61.8406 189V179.06H65.5226C66.68 179.06 67.5433 179.363 68.1126 179.97C68.6913 180.567 68.9806 181.365 68.9806 182.364C68.9806 183.428 68.654 184.235 68.0006 184.786C67.3566 185.327 66.47 185.598 65.3406 185.598H63.7866V189H61.8406ZM63.7866 183.848H65.0886C65.6953 183.848 66.1526 183.713 66.4606 183.442C66.778 183.171 66.9366 182.798 66.9366 182.322C66.9366 181.855 66.7826 181.487 66.4746 181.216C66.1666 180.945 65.7326 180.81 65.1726 180.81H63.7866V183.848ZM72.301 189V181.678L70.691 182.882L69.781 181.468L72.693 179.382H74.219V189H72.301ZM79.8238 189V187.432H75.7498V186.214L80.1598 179.382H81.6998V185.794H82.9878V187.432H81.6998V189H79.8238ZM77.8218 185.892H79.9638V182.448L77.8218 185.892ZM85.8721 189V181.678L84.2621 182.882L83.3521 181.468L86.2641 179.382H87.7901V189H85.8721ZM92.3159 187.264H95.8299V189H89.5579L89.5299 187.754L92.5259 184.59C92.9646 184.114 93.2866 183.708 93.4919 183.372C93.7066 183.036 93.8139 182.691 93.8139 182.336C93.8139 181.963 93.6926 181.655 93.4499 181.412C93.2073 181.16 92.8993 181.034 92.5259 181.034C91.8259 181.034 91.2706 181.379 90.8599 182.07L89.4879 181.09C90.1506 179.877 91.2146 179.27 92.6799 179.27C93.5199 179.27 94.2386 179.531 94.8359 180.054C95.4333 180.577 95.7319 181.267 95.7319 182.126C95.7319 182.695 95.6153 183.223 95.3819 183.708C95.1579 184.184 94.7426 184.735 94.1359 185.36L92.3159 187.236V187.264ZM96.8574 179.382H102.835V180.628L99.4894 189.21L97.5994 188.86L100.749 181.104H96.8574V179.382ZM107.586 182.84C108.426 182.84 109.126 183.115 109.686 183.666C110.255 184.217 110.54 184.973 110.54 185.934C110.54 186.867 110.209 187.633 109.546 188.23C108.893 188.818 108.067 189.112 107.068 189.112C106.069 189.112 105.243 188.757 104.59 188.048C103.937 187.329 103.61 186.401 103.61 185.262C103.61 183.703 104.077 182.35 105.01 181.202C105.953 180.054 107.18 179.34 108.692 179.06L109.238 180.586C107.455 181.09 106.307 181.986 105.794 183.274L105.808 183.288C106.331 182.989 106.923 182.84 107.586 182.84ZM107.124 187.404C107.572 187.404 107.941 187.259 108.23 186.97C108.529 186.671 108.678 186.312 108.678 185.892C108.678 185.463 108.533 185.113 108.244 184.842C107.955 184.571 107.572 184.436 107.096 184.436C106.452 184.436 105.897 184.721 105.43 185.29V185.43C105.43 186.018 105.593 186.494 105.92 186.858C106.247 187.222 106.648 187.404 107.124 187.404ZM115.679 189V187.432H111.605V186.214L116.015 179.382H117.555V185.794H118.843V187.432H117.555V189H115.679ZM113.677 185.892H115.819V182.448L113.677 185.892ZM119.702 179.382H125.68V180.628L122.334 189.21L120.444 188.86L123.594 181.104H119.702V179.382ZM130.323 189.112C128.913 189.112 127.705 188.589 126.697 187.544L127.873 186.088C128.227 186.499 128.624 186.811 129.063 187.026C129.501 187.231 129.931 187.334 130.351 187.334C130.817 187.334 131.172 187.241 131.415 187.054C131.657 186.858 131.779 186.601 131.779 186.284C131.779 185.939 131.653 185.677 131.401 185.5C131.149 185.313 130.696 185.108 130.043 184.884C129.595 184.725 129.221 184.576 128.923 184.436C128.624 184.287 128.316 184.091 127.999 183.848C127.681 183.605 127.443 183.311 127.285 182.966C127.126 182.621 127.047 182.224 127.047 181.776C127.047 180.983 127.355 180.315 127.971 179.774C128.587 179.233 129.343 178.953 130.239 178.934C131.452 178.925 132.567 179.345 133.585 180.194L132.451 181.678C131.667 181.025 130.943 180.698 130.281 180.698C129.926 180.698 129.637 180.787 129.413 180.964C129.198 181.141 129.091 181.384 129.091 181.692C129.081 181.981 129.198 182.215 129.441 182.392C129.683 182.56 130.122 182.77 130.757 183.022C131.783 183.423 132.455 183.731 132.773 183.946C133.482 184.431 133.837 185.136 133.837 186.06C133.837 187.059 133.482 187.819 132.773 188.342C132.063 188.855 131.247 189.112 130.323 189.112Z" fill="black" fill-opacity="0.2"/>
<defs>
<linearGradient id="paint0_linear_406_4376" x1="87.5" y1="205" x2="87.5" y2="4.92309e-07" gradientUnits="userSpaceOnUse">
<stop stop-color="#D1AE82"/>
<stop offset="1" stop-color="#FFDFB7"/>
</linearGradient>
<clipPath id="clip0_406_4376">
<rect width="125" height="125" fill="white" transform="translate(24.5 24)"/>
</clipPath>
</defs>
</svg>
